%TF.GenerationSoftware,KiCad,Pcbnew,8.0.6*%
%TF.CreationDate,2024-12-13T00:51:44+01:00*%
%TF.ProjectId,ps2-tatacon-rp2040,7073322d-7461-4746-9163-6f6e2d727032,rev?*%
%TF.SameCoordinates,Original*%
%TF.FileFunction,Drillmap*%
%TF.FilePolarity,Positive*%
%FSLAX45Y45*%
G04 Gerber Fmt 4.5, Leading zero omitted, Abs format (unit mm)*
G04 Created by KiCad (PCBNEW 8.0.6) date 2024-12-13 00:51:44*
%MOMM*%
%LPD*%
G01*
G04 APERTURE LIST*
%ADD10C,0.200000*%
%ADD11C,0.100000*%
G04 APERTURE END LIST*
D10*
X2767500Y-2595000D02*
G75*
G02*
X2967500Y-2395000I200000J0D01*
G01*
X2967500Y-2395000D02*
X7567500Y-2395000D01*
X7767500Y-2595000D02*
X7767500Y-5695000D01*
X7567500Y-5895000D02*
X2967500Y-5895000D01*
X7767500Y-5695000D02*
G75*
G02*
X7567500Y-5895000I-200000J0D01*
G01*
X7567500Y-2395000D02*
G75*
G02*
X7767500Y-2595000I0J-200000D01*
G01*
X2967500Y-5895000D02*
G75*
G02*
X2767500Y-5695000I0J200000D01*
G01*
X2767500Y-5695000D02*
X2767500Y-2595000D01*
X7510000Y-5545000D02*
G75*
G02*
X7210000Y-5545000I-150000J0D01*
G01*
X7210000Y-5545000D02*
G75*
G02*
X7510000Y-5545000I150000J0D01*
G01*
X7510000Y-2745000D02*
G75*
G02*
X7210000Y-2745000I-150000J0D01*
G01*
X7210000Y-2745000D02*
G75*
G02*
X7510000Y-2745000I150000J0D01*
G01*
X3325000Y-5545000D02*
G75*
G02*
X3025000Y-5545000I-150000J0D01*
G01*
X3025000Y-5545000D02*
G75*
G02*
X3325000Y-5545000I150000J0D01*
G01*
X3325000Y-2745000D02*
G75*
G02*
X3025000Y-2745000I-150000J0D01*
G01*
X3025000Y-2745000D02*
G75*
G02*
X3325000Y-2745000I150000J0D01*
G01*
D11*
X3228750Y-4350000D02*
X3268750Y-4390000D01*
X3268750Y-4350000D02*
X3228750Y-4390000D01*
X3406250Y-4045000D02*
X3446250Y-4085000D01*
X3446250Y-4045000D02*
X3406250Y-4085000D01*
X3651250Y-4970000D02*
X3691250Y-5010000D01*
X3691250Y-4970000D02*
X3651250Y-5010000D01*
X4050000Y-3575000D02*
X4090000Y-3615000D01*
X4090000Y-3575000D02*
X4050000Y-3615000D01*
X5055000Y-3222500D02*
X5095000Y-3262500D01*
X5095000Y-3222500D02*
X5055000Y-3262500D01*
X5355000Y-2910000D02*
X5395000Y-2950000D01*
X5395000Y-2910000D02*
X5355000Y-2950000D01*
X5617000Y-3654000D02*
G75*
G02*
X5537000Y-3654000I-40000J0D01*
G01*
X5537000Y-3654000D02*
G75*
G02*
X5617000Y-3654000I40000J0D01*
G01*
X5617000Y-3908000D02*
G75*
G02*
X5537000Y-3908000I-40000J0D01*
G01*
X5537000Y-3908000D02*
G75*
G02*
X5617000Y-3908000I40000J0D01*
G01*
X5617000Y-4162000D02*
G75*
G02*
X5537000Y-4162000I-40000J0D01*
G01*
X5537000Y-4162000D02*
G75*
G02*
X5617000Y-4162000I40000J0D01*
G01*
X5617000Y-4416000D02*
G75*
G02*
X5537000Y-4416000I-40000J0D01*
G01*
X5537000Y-4416000D02*
G75*
G02*
X5617000Y-4416000I40000J0D01*
G01*
X5617000Y-4670000D02*
G75*
G02*
X5537000Y-4670000I-40000J0D01*
G01*
X5537000Y-4670000D02*
G75*
G02*
X5617000Y-4670000I40000J0D01*
G01*
X5638000Y-3400000D02*
G75*
G02*
X5558000Y-3400000I-40000J0D01*
G01*
X5558000Y-3400000D02*
G75*
G02*
X5638000Y-3400000I40000J0D01*
G01*
X5638000Y-4924000D02*
G75*
G02*
X5558000Y-4924000I-40000J0D01*
G01*
X5558000Y-4924000D02*
G75*
G02*
X5638000Y-4924000I40000J0D01*
G01*
X5892000Y-3400000D02*
G75*
G02*
X5812000Y-3400000I-40000J0D01*
G01*
X5812000Y-3400000D02*
G75*
G02*
X5892000Y-3400000I40000J0D01*
G01*
X5892000Y-4924000D02*
G75*
G02*
X5812000Y-4924000I-40000J0D01*
G01*
X5812000Y-4924000D02*
G75*
G02*
X5892000Y-4924000I40000J0D01*
G01*
X6146000Y-3400000D02*
G75*
G02*
X6066000Y-3400000I-40000J0D01*
G01*
X6066000Y-3400000D02*
G75*
G02*
X6146000Y-3400000I40000J0D01*
G01*
X6146000Y-4924000D02*
G75*
G02*
X6066000Y-4924000I-40000J0D01*
G01*
X6066000Y-4924000D02*
G75*
G02*
X6146000Y-4924000I40000J0D01*
G01*
X6400000Y-3400000D02*
G75*
G02*
X6320000Y-3400000I-40000J0D01*
G01*
X6320000Y-3400000D02*
G75*
G02*
X6400000Y-3400000I40000J0D01*
G01*
X6400000Y-4924000D02*
G75*
G02*
X6320000Y-4924000I-40000J0D01*
G01*
X6320000Y-4924000D02*
G75*
G02*
X6400000Y-4924000I40000J0D01*
G01*
X6654000Y-3400000D02*
G75*
G02*
X6574000Y-3400000I-40000J0D01*
G01*
X6574000Y-3400000D02*
G75*
G02*
X6654000Y-3400000I40000J0D01*
G01*
X6654000Y-4924000D02*
G75*
G02*
X6574000Y-4924000I-40000J0D01*
G01*
X6574000Y-4924000D02*
G75*
G02*
X6654000Y-4924000I40000J0D01*
G01*
X6908000Y-3400000D02*
G75*
G02*
X6828000Y-3400000I-40000J0D01*
G01*
X6828000Y-3400000D02*
G75*
G02*
X6908000Y-3400000I40000J0D01*
G01*
X6908000Y-4924000D02*
G75*
G02*
X6828000Y-4924000I-40000J0D01*
G01*
X6828000Y-4924000D02*
G75*
G02*
X6908000Y-4924000I40000J0D01*
G01*
X7162000Y-3400000D02*
G75*
G02*
X7082000Y-3400000I-40000J0D01*
G01*
X7082000Y-3400000D02*
G75*
G02*
X7162000Y-3400000I40000J0D01*
G01*
X7162000Y-4924000D02*
G75*
G02*
X7082000Y-4924000I-40000J0D01*
G01*
X7082000Y-4924000D02*
G75*
G02*
X7162000Y-4924000I40000J0D01*
G01*
X7416000Y-3400000D02*
G75*
G02*
X7336000Y-3400000I-40000J0D01*
G01*
X7336000Y-3400000D02*
G75*
G02*
X7416000Y-3400000I40000J0D01*
G01*
X7416000Y-4924000D02*
G75*
G02*
X7336000Y-4924000I-40000J0D01*
G01*
X7336000Y-4924000D02*
G75*
G02*
X7416000Y-4924000I40000J0D01*
G01*
X7670000Y-3400000D02*
G75*
G02*
X7590000Y-3400000I-40000J0D01*
G01*
X7590000Y-3400000D02*
G75*
G02*
X7670000Y-3400000I40000J0D01*
G01*
X7670000Y-4924000D02*
G75*
G02*
X7590000Y-4924000I-40000J0D01*
G01*
X7590000Y-4924000D02*
G75*
G02*
X7670000Y-4924000I40000J0D01*
G01*
X3870000Y-3870000D02*
X3870000Y-3970000D01*
X3820000Y-3920000D02*
X3920000Y-3920000D01*
X4022000Y-2740000D02*
X4022000Y-2840000D01*
X3972000Y-2790000D02*
X4072000Y-2790000D01*
X4115000Y-4815000D02*
X4115000Y-4915000D01*
X4065000Y-4865000D02*
X4165000Y-4865000D01*
X4270000Y-3870000D02*
X4270000Y-3970000D01*
X4220000Y-3920000D02*
X4320000Y-3920000D01*
X4276000Y-2740000D02*
X4276000Y-2840000D01*
X4226000Y-2790000D02*
X4326000Y-2790000D01*
X4365000Y-4815000D02*
X4365000Y-4915000D01*
X4315000Y-4865000D02*
X4415000Y-4865000D01*
X4530000Y-2740000D02*
X4530000Y-2840000D01*
X4480000Y-2790000D02*
X4580000Y-2790000D01*
X4615000Y-4815000D02*
X4615000Y-4915000D01*
X4565000Y-4865000D02*
X4665000Y-4865000D01*
X4865000Y-4815000D02*
X4865000Y-4915000D01*
X4815000Y-4865000D02*
X4915000Y-4865000D01*
X6300000Y-2585000D02*
X6300000Y-2685000D01*
X6250000Y-2635000D02*
X6350000Y-2635000D01*
X6700000Y-2585000D02*
X6700000Y-2685000D01*
X6650000Y-2635000D02*
X6750000Y-2635000D01*
D10*
X3018277Y-6216484D02*
X3018277Y-6016484D01*
X3018277Y-6016484D02*
X3065896Y-6016484D01*
X3065896Y-6016484D02*
X3094467Y-6026008D01*
X3094467Y-6026008D02*
X3113515Y-6045055D01*
X3113515Y-6045055D02*
X3123039Y-6064103D01*
X3123039Y-6064103D02*
X3132562Y-6102198D01*
X3132562Y-6102198D02*
X3132562Y-6130769D01*
X3132562Y-6130769D02*
X3123039Y-6168865D01*
X3123039Y-6168865D02*
X3113515Y-6187912D01*
X3113515Y-6187912D02*
X3094467Y-6206960D01*
X3094467Y-6206960D02*
X3065896Y-6216484D01*
X3065896Y-6216484D02*
X3018277Y-6216484D01*
X3218277Y-6216484D02*
X3218277Y-6083150D01*
X3218277Y-6121246D02*
X3227801Y-6102198D01*
X3227801Y-6102198D02*
X3237324Y-6092674D01*
X3237324Y-6092674D02*
X3256372Y-6083150D01*
X3256372Y-6083150D02*
X3275420Y-6083150D01*
X3342086Y-6216484D02*
X3342086Y-6083150D01*
X3342086Y-6016484D02*
X3332562Y-6026008D01*
X3332562Y-6026008D02*
X3342086Y-6035531D01*
X3342086Y-6035531D02*
X3351610Y-6026008D01*
X3351610Y-6026008D02*
X3342086Y-6016484D01*
X3342086Y-6016484D02*
X3342086Y-6035531D01*
X3465896Y-6216484D02*
X3446848Y-6206960D01*
X3446848Y-6206960D02*
X3437324Y-6187912D01*
X3437324Y-6187912D02*
X3437324Y-6016484D01*
X3570658Y-6216484D02*
X3551610Y-6206960D01*
X3551610Y-6206960D02*
X3542086Y-6187912D01*
X3542086Y-6187912D02*
X3542086Y-6016484D01*
X3799229Y-6216484D02*
X3799229Y-6016484D01*
X3799229Y-6016484D02*
X3865896Y-6159341D01*
X3865896Y-6159341D02*
X3932562Y-6016484D01*
X3932562Y-6016484D02*
X3932562Y-6216484D01*
X4113515Y-6216484D02*
X4113515Y-6111722D01*
X4113515Y-6111722D02*
X4103991Y-6092674D01*
X4103991Y-6092674D02*
X4084943Y-6083150D01*
X4084943Y-6083150D02*
X4046848Y-6083150D01*
X4046848Y-6083150D02*
X4027801Y-6092674D01*
X4113515Y-6206960D02*
X4094467Y-6216484D01*
X4094467Y-6216484D02*
X4046848Y-6216484D01*
X4046848Y-6216484D02*
X4027801Y-6206960D01*
X4027801Y-6206960D02*
X4018277Y-6187912D01*
X4018277Y-6187912D02*
X4018277Y-6168865D01*
X4018277Y-6168865D02*
X4027801Y-6149817D01*
X4027801Y-6149817D02*
X4046848Y-6140293D01*
X4046848Y-6140293D02*
X4094467Y-6140293D01*
X4094467Y-6140293D02*
X4113515Y-6130769D01*
X4208753Y-6083150D02*
X4208753Y-6283150D01*
X4208753Y-6092674D02*
X4227801Y-6083150D01*
X4227801Y-6083150D02*
X4265896Y-6083150D01*
X4265896Y-6083150D02*
X4284944Y-6092674D01*
X4284944Y-6092674D02*
X4294467Y-6102198D01*
X4294467Y-6102198D02*
X4303991Y-6121246D01*
X4303991Y-6121246D02*
X4303991Y-6178388D01*
X4303991Y-6178388D02*
X4294467Y-6197436D01*
X4294467Y-6197436D02*
X4284944Y-6206960D01*
X4284944Y-6206960D02*
X4265896Y-6216484D01*
X4265896Y-6216484D02*
X4227801Y-6216484D01*
X4227801Y-6216484D02*
X4208753Y-6206960D01*
X4389705Y-6197436D02*
X4399229Y-6206960D01*
X4399229Y-6206960D02*
X4389705Y-6216484D01*
X4389705Y-6216484D02*
X4380182Y-6206960D01*
X4380182Y-6206960D02*
X4389705Y-6197436D01*
X4389705Y-6197436D02*
X4389705Y-6216484D01*
X4389705Y-6092674D02*
X4399229Y-6102198D01*
X4399229Y-6102198D02*
X4389705Y-6111722D01*
X4389705Y-6111722D02*
X4380182Y-6102198D01*
X4380182Y-6102198D02*
X4389705Y-6092674D01*
X4389705Y-6092674D02*
X4389705Y-6111722D01*
D11*
X2717500Y-6525000D02*
X2757500Y-6565000D01*
X2757500Y-6525000D02*
X2717500Y-6565000D01*
D10*
X3056372Y-6436484D02*
X3075420Y-6436484D01*
X3075420Y-6436484D02*
X3094467Y-6446008D01*
X3094467Y-6446008D02*
X3103991Y-6455531D01*
X3103991Y-6455531D02*
X3113515Y-6474579D01*
X3113515Y-6474579D02*
X3123039Y-6512674D01*
X3123039Y-6512674D02*
X3123039Y-6560293D01*
X3123039Y-6560293D02*
X3113515Y-6598388D01*
X3113515Y-6598388D02*
X3103991Y-6617436D01*
X3103991Y-6617436D02*
X3094467Y-6626960D01*
X3094467Y-6626960D02*
X3075420Y-6636484D01*
X3075420Y-6636484D02*
X3056372Y-6636484D01*
X3056372Y-6636484D02*
X3037324Y-6626960D01*
X3037324Y-6626960D02*
X3027801Y-6617436D01*
X3027801Y-6617436D02*
X3018277Y-6598388D01*
X3018277Y-6598388D02*
X3008753Y-6560293D01*
X3008753Y-6560293D02*
X3008753Y-6512674D01*
X3008753Y-6512674D02*
X3018277Y-6474579D01*
X3018277Y-6474579D02*
X3027801Y-6455531D01*
X3027801Y-6455531D02*
X3037324Y-6446008D01*
X3037324Y-6446008D02*
X3056372Y-6436484D01*
X3208753Y-6617436D02*
X3218277Y-6626960D01*
X3218277Y-6626960D02*
X3208753Y-6636484D01*
X3208753Y-6636484D02*
X3199229Y-6626960D01*
X3199229Y-6626960D02*
X3208753Y-6617436D01*
X3208753Y-6617436D02*
X3208753Y-6636484D01*
X3389705Y-6503150D02*
X3389705Y-6636484D01*
X3342086Y-6426960D02*
X3294467Y-6569817D01*
X3294467Y-6569817D02*
X3418277Y-6569817D01*
X3532562Y-6436484D02*
X3551610Y-6436484D01*
X3551610Y-6436484D02*
X3570658Y-6446008D01*
X3570658Y-6446008D02*
X3580182Y-6455531D01*
X3580182Y-6455531D02*
X3589705Y-6474579D01*
X3589705Y-6474579D02*
X3599229Y-6512674D01*
X3599229Y-6512674D02*
X3599229Y-6560293D01*
X3599229Y-6560293D02*
X3589705Y-6598388D01*
X3589705Y-6598388D02*
X3580182Y-6617436D01*
X3580182Y-6617436D02*
X3570658Y-6626960D01*
X3570658Y-6626960D02*
X3551610Y-6636484D01*
X3551610Y-6636484D02*
X3532562Y-6636484D01*
X3532562Y-6636484D02*
X3513515Y-6626960D01*
X3513515Y-6626960D02*
X3503991Y-6617436D01*
X3503991Y-6617436D02*
X3494467Y-6598388D01*
X3494467Y-6598388D02*
X3484943Y-6560293D01*
X3484943Y-6560293D02*
X3484943Y-6512674D01*
X3484943Y-6512674D02*
X3494467Y-6474579D01*
X3494467Y-6474579D02*
X3503991Y-6455531D01*
X3503991Y-6455531D02*
X3513515Y-6446008D01*
X3513515Y-6446008D02*
X3532562Y-6436484D01*
X3723039Y-6436484D02*
X3742086Y-6436484D01*
X3742086Y-6436484D02*
X3761134Y-6446008D01*
X3761134Y-6446008D02*
X3770658Y-6455531D01*
X3770658Y-6455531D02*
X3780182Y-6474579D01*
X3780182Y-6474579D02*
X3789705Y-6512674D01*
X3789705Y-6512674D02*
X3789705Y-6560293D01*
X3789705Y-6560293D02*
X3780182Y-6598388D01*
X3780182Y-6598388D02*
X3770658Y-6617436D01*
X3770658Y-6617436D02*
X3761134Y-6626960D01*
X3761134Y-6626960D02*
X3742086Y-6636484D01*
X3742086Y-6636484D02*
X3723039Y-6636484D01*
X3723039Y-6636484D02*
X3703991Y-6626960D01*
X3703991Y-6626960D02*
X3694467Y-6617436D01*
X3694467Y-6617436D02*
X3684943Y-6598388D01*
X3684943Y-6598388D02*
X3675420Y-6560293D01*
X3675420Y-6560293D02*
X3675420Y-6512674D01*
X3675420Y-6512674D02*
X3684943Y-6474579D01*
X3684943Y-6474579D02*
X3694467Y-6455531D01*
X3694467Y-6455531D02*
X3703991Y-6446008D01*
X3703991Y-6446008D02*
X3723039Y-6436484D01*
X3875420Y-6636484D02*
X3875420Y-6503150D01*
X3875420Y-6522198D02*
X3884943Y-6512674D01*
X3884943Y-6512674D02*
X3903991Y-6503150D01*
X3903991Y-6503150D02*
X3932563Y-6503150D01*
X3932563Y-6503150D02*
X3951610Y-6512674D01*
X3951610Y-6512674D02*
X3961134Y-6531722D01*
X3961134Y-6531722D02*
X3961134Y-6636484D01*
X3961134Y-6531722D02*
X3970658Y-6512674D01*
X3970658Y-6512674D02*
X3989705Y-6503150D01*
X3989705Y-6503150D02*
X4018277Y-6503150D01*
X4018277Y-6503150D02*
X4037324Y-6512674D01*
X4037324Y-6512674D02*
X4046848Y-6531722D01*
X4046848Y-6531722D02*
X4046848Y-6636484D01*
X4142086Y-6636484D02*
X4142086Y-6503150D01*
X4142086Y-6522198D02*
X4151610Y-6512674D01*
X4151610Y-6512674D02*
X4170658Y-6503150D01*
X4170658Y-6503150D02*
X4199229Y-6503150D01*
X4199229Y-6503150D02*
X4218277Y-6512674D01*
X4218277Y-6512674D02*
X4227801Y-6531722D01*
X4227801Y-6531722D02*
X4227801Y-6636484D01*
X4227801Y-6531722D02*
X4237325Y-6512674D01*
X4237325Y-6512674D02*
X4256372Y-6503150D01*
X4256372Y-6503150D02*
X4284944Y-6503150D01*
X4284944Y-6503150D02*
X4303991Y-6512674D01*
X4303991Y-6512674D02*
X4313515Y-6531722D01*
X4313515Y-6531722D02*
X4313515Y-6636484D01*
X4703991Y-6426960D02*
X4532563Y-6684103D01*
X4961134Y-6436484D02*
X4980182Y-6436484D01*
X4980182Y-6436484D02*
X4999229Y-6446008D01*
X4999229Y-6446008D02*
X5008753Y-6455531D01*
X5008753Y-6455531D02*
X5018277Y-6474579D01*
X5018277Y-6474579D02*
X5027801Y-6512674D01*
X5027801Y-6512674D02*
X5027801Y-6560293D01*
X5027801Y-6560293D02*
X5018277Y-6598388D01*
X5018277Y-6598388D02*
X5008753Y-6617436D01*
X5008753Y-6617436D02*
X4999229Y-6626960D01*
X4999229Y-6626960D02*
X4980182Y-6636484D01*
X4980182Y-6636484D02*
X4961134Y-6636484D01*
X4961134Y-6636484D02*
X4942087Y-6626960D01*
X4942087Y-6626960D02*
X4932563Y-6617436D01*
X4932563Y-6617436D02*
X4923039Y-6598388D01*
X4923039Y-6598388D02*
X4913515Y-6560293D01*
X4913515Y-6560293D02*
X4913515Y-6512674D01*
X4913515Y-6512674D02*
X4923039Y-6474579D01*
X4923039Y-6474579D02*
X4932563Y-6455531D01*
X4932563Y-6455531D02*
X4942087Y-6446008D01*
X4942087Y-6446008D02*
X4961134Y-6436484D01*
X5113515Y-6617436D02*
X5123039Y-6626960D01*
X5123039Y-6626960D02*
X5113515Y-6636484D01*
X5113515Y-6636484D02*
X5103991Y-6626960D01*
X5103991Y-6626960D02*
X5113515Y-6617436D01*
X5113515Y-6617436D02*
X5113515Y-6636484D01*
X5246848Y-6436484D02*
X5265896Y-6436484D01*
X5265896Y-6436484D02*
X5284944Y-6446008D01*
X5284944Y-6446008D02*
X5294468Y-6455531D01*
X5294468Y-6455531D02*
X5303991Y-6474579D01*
X5303991Y-6474579D02*
X5313515Y-6512674D01*
X5313515Y-6512674D02*
X5313515Y-6560293D01*
X5313515Y-6560293D02*
X5303991Y-6598388D01*
X5303991Y-6598388D02*
X5294468Y-6617436D01*
X5294468Y-6617436D02*
X5284944Y-6626960D01*
X5284944Y-6626960D02*
X5265896Y-6636484D01*
X5265896Y-6636484D02*
X5246848Y-6636484D01*
X5246848Y-6636484D02*
X5227801Y-6626960D01*
X5227801Y-6626960D02*
X5218277Y-6617436D01*
X5218277Y-6617436D02*
X5208753Y-6598388D01*
X5208753Y-6598388D02*
X5199229Y-6560293D01*
X5199229Y-6560293D02*
X5199229Y-6512674D01*
X5199229Y-6512674D02*
X5208753Y-6474579D01*
X5208753Y-6474579D02*
X5218277Y-6455531D01*
X5218277Y-6455531D02*
X5227801Y-6446008D01*
X5227801Y-6446008D02*
X5246848Y-6436484D01*
X5503991Y-6636484D02*
X5389706Y-6636484D01*
X5446848Y-6636484D02*
X5446848Y-6436484D01*
X5446848Y-6436484D02*
X5427801Y-6465055D01*
X5427801Y-6465055D02*
X5408753Y-6484103D01*
X5408753Y-6484103D02*
X5389706Y-6493627D01*
X5684944Y-6436484D02*
X5589706Y-6436484D01*
X5589706Y-6436484D02*
X5580182Y-6531722D01*
X5580182Y-6531722D02*
X5589706Y-6522198D01*
X5589706Y-6522198D02*
X5608753Y-6512674D01*
X5608753Y-6512674D02*
X5656372Y-6512674D01*
X5656372Y-6512674D02*
X5675420Y-6522198D01*
X5675420Y-6522198D02*
X5684944Y-6531722D01*
X5684944Y-6531722D02*
X5694467Y-6550769D01*
X5694467Y-6550769D02*
X5694467Y-6598388D01*
X5694467Y-6598388D02*
X5684944Y-6617436D01*
X5684944Y-6617436D02*
X5675420Y-6626960D01*
X5675420Y-6626960D02*
X5656372Y-6636484D01*
X5656372Y-6636484D02*
X5608753Y-6636484D01*
X5608753Y-6636484D02*
X5589706Y-6626960D01*
X5589706Y-6626960D02*
X5580182Y-6617436D01*
X5761134Y-6436484D02*
X5894467Y-6436484D01*
X5894467Y-6436484D02*
X5808753Y-6636484D01*
X5961134Y-6436484D02*
X5961134Y-6474579D01*
X6037325Y-6436484D02*
X6037325Y-6474579D01*
X6332563Y-6712674D02*
X6323039Y-6703150D01*
X6323039Y-6703150D02*
X6303991Y-6674579D01*
X6303991Y-6674579D02*
X6294468Y-6655531D01*
X6294468Y-6655531D02*
X6284944Y-6626960D01*
X6284944Y-6626960D02*
X6275420Y-6579341D01*
X6275420Y-6579341D02*
X6275420Y-6541246D01*
X6275420Y-6541246D02*
X6284944Y-6493627D01*
X6284944Y-6493627D02*
X6294468Y-6465055D01*
X6294468Y-6465055D02*
X6303991Y-6446008D01*
X6303991Y-6446008D02*
X6323039Y-6417436D01*
X6323039Y-6417436D02*
X6332563Y-6407912D01*
X6494468Y-6436484D02*
X6456372Y-6436484D01*
X6456372Y-6436484D02*
X6437325Y-6446008D01*
X6437325Y-6446008D02*
X6427801Y-6455531D01*
X6427801Y-6455531D02*
X6408753Y-6484103D01*
X6408753Y-6484103D02*
X6399229Y-6522198D01*
X6399229Y-6522198D02*
X6399229Y-6598388D01*
X6399229Y-6598388D02*
X6408753Y-6617436D01*
X6408753Y-6617436D02*
X6418277Y-6626960D01*
X6418277Y-6626960D02*
X6437325Y-6636484D01*
X6437325Y-6636484D02*
X6475420Y-6636484D01*
X6475420Y-6636484D02*
X6494468Y-6626960D01*
X6494468Y-6626960D02*
X6503991Y-6617436D01*
X6503991Y-6617436D02*
X6513515Y-6598388D01*
X6513515Y-6598388D02*
X6513515Y-6550769D01*
X6513515Y-6550769D02*
X6503991Y-6531722D01*
X6503991Y-6531722D02*
X6494468Y-6522198D01*
X6494468Y-6522198D02*
X6475420Y-6512674D01*
X6475420Y-6512674D02*
X6437325Y-6512674D01*
X6437325Y-6512674D02*
X6418277Y-6522198D01*
X6418277Y-6522198D02*
X6408753Y-6531722D01*
X6408753Y-6531722D02*
X6399229Y-6550769D01*
X6751610Y-6636484D02*
X6751610Y-6436484D01*
X6837325Y-6636484D02*
X6837325Y-6531722D01*
X6837325Y-6531722D02*
X6827801Y-6512674D01*
X6827801Y-6512674D02*
X6808753Y-6503150D01*
X6808753Y-6503150D02*
X6780182Y-6503150D01*
X6780182Y-6503150D02*
X6761134Y-6512674D01*
X6761134Y-6512674D02*
X6751610Y-6522198D01*
X6961134Y-6636484D02*
X6942087Y-6626960D01*
X6942087Y-6626960D02*
X6932563Y-6617436D01*
X6932563Y-6617436D02*
X6923039Y-6598388D01*
X6923039Y-6598388D02*
X6923039Y-6541246D01*
X6923039Y-6541246D02*
X6932563Y-6522198D01*
X6932563Y-6522198D02*
X6942087Y-6512674D01*
X6942087Y-6512674D02*
X6961134Y-6503150D01*
X6961134Y-6503150D02*
X6989706Y-6503150D01*
X6989706Y-6503150D02*
X7008753Y-6512674D01*
X7008753Y-6512674D02*
X7018277Y-6522198D01*
X7018277Y-6522198D02*
X7027801Y-6541246D01*
X7027801Y-6541246D02*
X7027801Y-6598388D01*
X7027801Y-6598388D02*
X7018277Y-6617436D01*
X7018277Y-6617436D02*
X7008753Y-6626960D01*
X7008753Y-6626960D02*
X6989706Y-6636484D01*
X6989706Y-6636484D02*
X6961134Y-6636484D01*
X7142087Y-6636484D02*
X7123039Y-6626960D01*
X7123039Y-6626960D02*
X7113515Y-6607912D01*
X7113515Y-6607912D02*
X7113515Y-6436484D01*
X7294468Y-6626960D02*
X7275420Y-6636484D01*
X7275420Y-6636484D02*
X7237325Y-6636484D01*
X7237325Y-6636484D02*
X7218277Y-6626960D01*
X7218277Y-6626960D02*
X7208753Y-6607912D01*
X7208753Y-6607912D02*
X7208753Y-6531722D01*
X7208753Y-6531722D02*
X7218277Y-6512674D01*
X7218277Y-6512674D02*
X7237325Y-6503150D01*
X7237325Y-6503150D02*
X7275420Y-6503150D01*
X7275420Y-6503150D02*
X7294468Y-6512674D01*
X7294468Y-6512674D02*
X7303991Y-6531722D01*
X7303991Y-6531722D02*
X7303991Y-6550769D01*
X7303991Y-6550769D02*
X7208753Y-6569817D01*
X7380182Y-6626960D02*
X7399230Y-6636484D01*
X7399230Y-6636484D02*
X7437325Y-6636484D01*
X7437325Y-6636484D02*
X7456372Y-6626960D01*
X7456372Y-6626960D02*
X7465896Y-6607912D01*
X7465896Y-6607912D02*
X7465896Y-6598388D01*
X7465896Y-6598388D02*
X7456372Y-6579341D01*
X7456372Y-6579341D02*
X7437325Y-6569817D01*
X7437325Y-6569817D02*
X7408753Y-6569817D01*
X7408753Y-6569817D02*
X7389706Y-6560293D01*
X7389706Y-6560293D02*
X7380182Y-6541246D01*
X7380182Y-6541246D02*
X7380182Y-6531722D01*
X7380182Y-6531722D02*
X7389706Y-6512674D01*
X7389706Y-6512674D02*
X7408753Y-6503150D01*
X7408753Y-6503150D02*
X7437325Y-6503150D01*
X7437325Y-6503150D02*
X7456372Y-6512674D01*
X7532563Y-6712674D02*
X7542087Y-6703150D01*
X7542087Y-6703150D02*
X7561134Y-6674579D01*
X7561134Y-6674579D02*
X7570658Y-6655531D01*
X7570658Y-6655531D02*
X7580182Y-6626960D01*
X7580182Y-6626960D02*
X7589706Y-6579341D01*
X7589706Y-6579341D02*
X7589706Y-6541246D01*
X7589706Y-6541246D02*
X7580182Y-6493627D01*
X7580182Y-6493627D02*
X7570658Y-6465055D01*
X7570658Y-6465055D02*
X7561134Y-6446008D01*
X7561134Y-6446008D02*
X7542087Y-6417436D01*
X7542087Y-6417436D02*
X7532563Y-6407912D01*
D11*
X2757500Y-6809000D02*
G75*
G02*
X2677500Y-6809000I-40000J0D01*
G01*
X2677500Y-6809000D02*
G75*
G02*
X2757500Y-6809000I40000J0D01*
G01*
D10*
X3056372Y-6700484D02*
X3075420Y-6700484D01*
X3075420Y-6700484D02*
X3094467Y-6710008D01*
X3094467Y-6710008D02*
X3103991Y-6719531D01*
X3103991Y-6719531D02*
X3113515Y-6738579D01*
X3113515Y-6738579D02*
X3123039Y-6776674D01*
X3123039Y-6776674D02*
X3123039Y-6824293D01*
X3123039Y-6824293D02*
X3113515Y-6862388D01*
X3113515Y-6862388D02*
X3103991Y-6881436D01*
X3103991Y-6881436D02*
X3094467Y-6890960D01*
X3094467Y-6890960D02*
X3075420Y-6900484D01*
X3075420Y-6900484D02*
X3056372Y-6900484D01*
X3056372Y-6900484D02*
X3037324Y-6890960D01*
X3037324Y-6890960D02*
X3027801Y-6881436D01*
X3027801Y-6881436D02*
X3018277Y-6862388D01*
X3018277Y-6862388D02*
X3008753Y-6824293D01*
X3008753Y-6824293D02*
X3008753Y-6776674D01*
X3008753Y-6776674D02*
X3018277Y-6738579D01*
X3018277Y-6738579D02*
X3027801Y-6719531D01*
X3027801Y-6719531D02*
X3037324Y-6710008D01*
X3037324Y-6710008D02*
X3056372Y-6700484D01*
X3208753Y-6881436D02*
X3218277Y-6890960D01*
X3218277Y-6890960D02*
X3208753Y-6900484D01*
X3208753Y-6900484D02*
X3199229Y-6890960D01*
X3199229Y-6890960D02*
X3208753Y-6881436D01*
X3208753Y-6881436D02*
X3208753Y-6900484D01*
X3332562Y-6786198D02*
X3313515Y-6776674D01*
X3313515Y-6776674D02*
X3303991Y-6767150D01*
X3303991Y-6767150D02*
X3294467Y-6748103D01*
X3294467Y-6748103D02*
X3294467Y-6738579D01*
X3294467Y-6738579D02*
X3303991Y-6719531D01*
X3303991Y-6719531D02*
X3313515Y-6710008D01*
X3313515Y-6710008D02*
X3332562Y-6700484D01*
X3332562Y-6700484D02*
X3370658Y-6700484D01*
X3370658Y-6700484D02*
X3389705Y-6710008D01*
X3389705Y-6710008D02*
X3399229Y-6719531D01*
X3399229Y-6719531D02*
X3408753Y-6738579D01*
X3408753Y-6738579D02*
X3408753Y-6748103D01*
X3408753Y-6748103D02*
X3399229Y-6767150D01*
X3399229Y-6767150D02*
X3389705Y-6776674D01*
X3389705Y-6776674D02*
X3370658Y-6786198D01*
X3370658Y-6786198D02*
X3332562Y-6786198D01*
X3332562Y-6786198D02*
X3313515Y-6795722D01*
X3313515Y-6795722D02*
X3303991Y-6805246D01*
X3303991Y-6805246D02*
X3294467Y-6824293D01*
X3294467Y-6824293D02*
X3294467Y-6862388D01*
X3294467Y-6862388D02*
X3303991Y-6881436D01*
X3303991Y-6881436D02*
X3313515Y-6890960D01*
X3313515Y-6890960D02*
X3332562Y-6900484D01*
X3332562Y-6900484D02*
X3370658Y-6900484D01*
X3370658Y-6900484D02*
X3389705Y-6890960D01*
X3389705Y-6890960D02*
X3399229Y-6881436D01*
X3399229Y-6881436D02*
X3408753Y-6862388D01*
X3408753Y-6862388D02*
X3408753Y-6824293D01*
X3408753Y-6824293D02*
X3399229Y-6805246D01*
X3399229Y-6805246D02*
X3389705Y-6795722D01*
X3389705Y-6795722D02*
X3370658Y-6786198D01*
X3532562Y-6700484D02*
X3551610Y-6700484D01*
X3551610Y-6700484D02*
X3570658Y-6710008D01*
X3570658Y-6710008D02*
X3580182Y-6719531D01*
X3580182Y-6719531D02*
X3589705Y-6738579D01*
X3589705Y-6738579D02*
X3599229Y-6776674D01*
X3599229Y-6776674D02*
X3599229Y-6824293D01*
X3599229Y-6824293D02*
X3589705Y-6862388D01*
X3589705Y-6862388D02*
X3580182Y-6881436D01*
X3580182Y-6881436D02*
X3570658Y-6890960D01*
X3570658Y-6890960D02*
X3551610Y-6900484D01*
X3551610Y-6900484D02*
X3532562Y-6900484D01*
X3532562Y-6900484D02*
X3513515Y-6890960D01*
X3513515Y-6890960D02*
X3503991Y-6881436D01*
X3503991Y-6881436D02*
X3494467Y-6862388D01*
X3494467Y-6862388D02*
X3484943Y-6824293D01*
X3484943Y-6824293D02*
X3484943Y-6776674D01*
X3484943Y-6776674D02*
X3494467Y-6738579D01*
X3494467Y-6738579D02*
X3503991Y-6719531D01*
X3503991Y-6719531D02*
X3513515Y-6710008D01*
X3513515Y-6710008D02*
X3532562Y-6700484D01*
X3723039Y-6700484D02*
X3742086Y-6700484D01*
X3742086Y-6700484D02*
X3761134Y-6710008D01*
X3761134Y-6710008D02*
X3770658Y-6719531D01*
X3770658Y-6719531D02*
X3780182Y-6738579D01*
X3780182Y-6738579D02*
X3789705Y-6776674D01*
X3789705Y-6776674D02*
X3789705Y-6824293D01*
X3789705Y-6824293D02*
X3780182Y-6862388D01*
X3780182Y-6862388D02*
X3770658Y-6881436D01*
X3770658Y-6881436D02*
X3761134Y-6890960D01*
X3761134Y-6890960D02*
X3742086Y-6900484D01*
X3742086Y-6900484D02*
X3723039Y-6900484D01*
X3723039Y-6900484D02*
X3703991Y-6890960D01*
X3703991Y-6890960D02*
X3694467Y-6881436D01*
X3694467Y-6881436D02*
X3684943Y-6862388D01*
X3684943Y-6862388D02*
X3675420Y-6824293D01*
X3675420Y-6824293D02*
X3675420Y-6776674D01*
X3675420Y-6776674D02*
X3684943Y-6738579D01*
X3684943Y-6738579D02*
X3694467Y-6719531D01*
X3694467Y-6719531D02*
X3703991Y-6710008D01*
X3703991Y-6710008D02*
X3723039Y-6700484D01*
X3875420Y-6900484D02*
X3875420Y-6767150D01*
X3875420Y-6786198D02*
X3884943Y-6776674D01*
X3884943Y-6776674D02*
X3903991Y-6767150D01*
X3903991Y-6767150D02*
X3932563Y-6767150D01*
X3932563Y-6767150D02*
X3951610Y-6776674D01*
X3951610Y-6776674D02*
X3961134Y-6795722D01*
X3961134Y-6795722D02*
X3961134Y-6900484D01*
X3961134Y-6795722D02*
X3970658Y-6776674D01*
X3970658Y-6776674D02*
X3989705Y-6767150D01*
X3989705Y-6767150D02*
X4018277Y-6767150D01*
X4018277Y-6767150D02*
X4037324Y-6776674D01*
X4037324Y-6776674D02*
X4046848Y-6795722D01*
X4046848Y-6795722D02*
X4046848Y-6900484D01*
X4142086Y-6900484D02*
X4142086Y-6767150D01*
X4142086Y-6786198D02*
X4151610Y-6776674D01*
X4151610Y-6776674D02*
X4170658Y-6767150D01*
X4170658Y-6767150D02*
X4199229Y-6767150D01*
X4199229Y-6767150D02*
X4218277Y-6776674D01*
X4218277Y-6776674D02*
X4227801Y-6795722D01*
X4227801Y-6795722D02*
X4227801Y-6900484D01*
X4227801Y-6795722D02*
X4237325Y-6776674D01*
X4237325Y-6776674D02*
X4256372Y-6767150D01*
X4256372Y-6767150D02*
X4284944Y-6767150D01*
X4284944Y-6767150D02*
X4303991Y-6776674D01*
X4303991Y-6776674D02*
X4313515Y-6795722D01*
X4313515Y-6795722D02*
X4313515Y-6900484D01*
X4703991Y-6690960D02*
X4532563Y-6948103D01*
X4961134Y-6700484D02*
X4980182Y-6700484D01*
X4980182Y-6700484D02*
X4999229Y-6710008D01*
X4999229Y-6710008D02*
X5008753Y-6719531D01*
X5008753Y-6719531D02*
X5018277Y-6738579D01*
X5018277Y-6738579D02*
X5027801Y-6776674D01*
X5027801Y-6776674D02*
X5027801Y-6824293D01*
X5027801Y-6824293D02*
X5018277Y-6862388D01*
X5018277Y-6862388D02*
X5008753Y-6881436D01*
X5008753Y-6881436D02*
X4999229Y-6890960D01*
X4999229Y-6890960D02*
X4980182Y-6900484D01*
X4980182Y-6900484D02*
X4961134Y-6900484D01*
X4961134Y-6900484D02*
X4942087Y-6890960D01*
X4942087Y-6890960D02*
X4932563Y-6881436D01*
X4932563Y-6881436D02*
X4923039Y-6862388D01*
X4923039Y-6862388D02*
X4913515Y-6824293D01*
X4913515Y-6824293D02*
X4913515Y-6776674D01*
X4913515Y-6776674D02*
X4923039Y-6738579D01*
X4923039Y-6738579D02*
X4932563Y-6719531D01*
X4932563Y-6719531D02*
X4942087Y-6710008D01*
X4942087Y-6710008D02*
X4961134Y-6700484D01*
X5113515Y-6881436D02*
X5123039Y-6890960D01*
X5123039Y-6890960D02*
X5113515Y-6900484D01*
X5113515Y-6900484D02*
X5103991Y-6890960D01*
X5103991Y-6890960D02*
X5113515Y-6881436D01*
X5113515Y-6881436D02*
X5113515Y-6900484D01*
X5246848Y-6700484D02*
X5265896Y-6700484D01*
X5265896Y-6700484D02*
X5284944Y-6710008D01*
X5284944Y-6710008D02*
X5294468Y-6719531D01*
X5294468Y-6719531D02*
X5303991Y-6738579D01*
X5303991Y-6738579D02*
X5313515Y-6776674D01*
X5313515Y-6776674D02*
X5313515Y-6824293D01*
X5313515Y-6824293D02*
X5303991Y-6862388D01*
X5303991Y-6862388D02*
X5294468Y-6881436D01*
X5294468Y-6881436D02*
X5284944Y-6890960D01*
X5284944Y-6890960D02*
X5265896Y-6900484D01*
X5265896Y-6900484D02*
X5246848Y-6900484D01*
X5246848Y-6900484D02*
X5227801Y-6890960D01*
X5227801Y-6890960D02*
X5218277Y-6881436D01*
X5218277Y-6881436D02*
X5208753Y-6862388D01*
X5208753Y-6862388D02*
X5199229Y-6824293D01*
X5199229Y-6824293D02*
X5199229Y-6776674D01*
X5199229Y-6776674D02*
X5208753Y-6738579D01*
X5208753Y-6738579D02*
X5218277Y-6719531D01*
X5218277Y-6719531D02*
X5227801Y-6710008D01*
X5227801Y-6710008D02*
X5246848Y-6700484D01*
X5380182Y-6700484D02*
X5503991Y-6700484D01*
X5503991Y-6700484D02*
X5437325Y-6776674D01*
X5437325Y-6776674D02*
X5465896Y-6776674D01*
X5465896Y-6776674D02*
X5484944Y-6786198D01*
X5484944Y-6786198D02*
X5494468Y-6795722D01*
X5494468Y-6795722D02*
X5503991Y-6814769D01*
X5503991Y-6814769D02*
X5503991Y-6862388D01*
X5503991Y-6862388D02*
X5494468Y-6881436D01*
X5494468Y-6881436D02*
X5484944Y-6890960D01*
X5484944Y-6890960D02*
X5465896Y-6900484D01*
X5465896Y-6900484D02*
X5408753Y-6900484D01*
X5408753Y-6900484D02*
X5389706Y-6890960D01*
X5389706Y-6890960D02*
X5380182Y-6881436D01*
X5694467Y-6900484D02*
X5580182Y-6900484D01*
X5637325Y-6900484D02*
X5637325Y-6700484D01*
X5637325Y-6700484D02*
X5618277Y-6729055D01*
X5618277Y-6729055D02*
X5599229Y-6748103D01*
X5599229Y-6748103D02*
X5580182Y-6757627D01*
X5875420Y-6700484D02*
X5780182Y-6700484D01*
X5780182Y-6700484D02*
X5770658Y-6795722D01*
X5770658Y-6795722D02*
X5780182Y-6786198D01*
X5780182Y-6786198D02*
X5799229Y-6776674D01*
X5799229Y-6776674D02*
X5846848Y-6776674D01*
X5846848Y-6776674D02*
X5865896Y-6786198D01*
X5865896Y-6786198D02*
X5875420Y-6795722D01*
X5875420Y-6795722D02*
X5884944Y-6814769D01*
X5884944Y-6814769D02*
X5884944Y-6862388D01*
X5884944Y-6862388D02*
X5875420Y-6881436D01*
X5875420Y-6881436D02*
X5865896Y-6890960D01*
X5865896Y-6890960D02*
X5846848Y-6900484D01*
X5846848Y-6900484D02*
X5799229Y-6900484D01*
X5799229Y-6900484D02*
X5780182Y-6890960D01*
X5780182Y-6890960D02*
X5770658Y-6881436D01*
X5961134Y-6700484D02*
X5961134Y-6738579D01*
X6037325Y-6700484D02*
X6037325Y-6738579D01*
X6332563Y-6976674D02*
X6323039Y-6967150D01*
X6323039Y-6967150D02*
X6303991Y-6938579D01*
X6303991Y-6938579D02*
X6294468Y-6919531D01*
X6294468Y-6919531D02*
X6284944Y-6890960D01*
X6284944Y-6890960D02*
X6275420Y-6843341D01*
X6275420Y-6843341D02*
X6275420Y-6805246D01*
X6275420Y-6805246D02*
X6284944Y-6757627D01*
X6284944Y-6757627D02*
X6294468Y-6729055D01*
X6294468Y-6729055D02*
X6303991Y-6710008D01*
X6303991Y-6710008D02*
X6323039Y-6681436D01*
X6323039Y-6681436D02*
X6332563Y-6671912D01*
X6399229Y-6719531D02*
X6408753Y-6710008D01*
X6408753Y-6710008D02*
X6427801Y-6700484D01*
X6427801Y-6700484D02*
X6475420Y-6700484D01*
X6475420Y-6700484D02*
X6494468Y-6710008D01*
X6494468Y-6710008D02*
X6503991Y-6719531D01*
X6503991Y-6719531D02*
X6513515Y-6738579D01*
X6513515Y-6738579D02*
X6513515Y-6757627D01*
X6513515Y-6757627D02*
X6503991Y-6786198D01*
X6503991Y-6786198D02*
X6389706Y-6900484D01*
X6389706Y-6900484D02*
X6513515Y-6900484D01*
X6580182Y-6700484D02*
X6703991Y-6700484D01*
X6703991Y-6700484D02*
X6637325Y-6776674D01*
X6637325Y-6776674D02*
X6665896Y-6776674D01*
X6665896Y-6776674D02*
X6684944Y-6786198D01*
X6684944Y-6786198D02*
X6694468Y-6795722D01*
X6694468Y-6795722D02*
X6703991Y-6814769D01*
X6703991Y-6814769D02*
X6703991Y-6862388D01*
X6703991Y-6862388D02*
X6694468Y-6881436D01*
X6694468Y-6881436D02*
X6684944Y-6890960D01*
X6684944Y-6890960D02*
X6665896Y-6900484D01*
X6665896Y-6900484D02*
X6608753Y-6900484D01*
X6608753Y-6900484D02*
X6589706Y-6890960D01*
X6589706Y-6890960D02*
X6580182Y-6881436D01*
X6942087Y-6900484D02*
X6942087Y-6700484D01*
X7027801Y-6900484D02*
X7027801Y-6795722D01*
X7027801Y-6795722D02*
X7018277Y-6776674D01*
X7018277Y-6776674D02*
X6999230Y-6767150D01*
X6999230Y-6767150D02*
X6970658Y-6767150D01*
X6970658Y-6767150D02*
X6951610Y-6776674D01*
X6951610Y-6776674D02*
X6942087Y-6786198D01*
X7151610Y-6900484D02*
X7132563Y-6890960D01*
X7132563Y-6890960D02*
X7123039Y-6881436D01*
X7123039Y-6881436D02*
X7113515Y-6862388D01*
X7113515Y-6862388D02*
X7113515Y-6805246D01*
X7113515Y-6805246D02*
X7123039Y-6786198D01*
X7123039Y-6786198D02*
X7132563Y-6776674D01*
X7132563Y-6776674D02*
X7151610Y-6767150D01*
X7151610Y-6767150D02*
X7180182Y-6767150D01*
X7180182Y-6767150D02*
X7199230Y-6776674D01*
X7199230Y-6776674D02*
X7208753Y-6786198D01*
X7208753Y-6786198D02*
X7218277Y-6805246D01*
X7218277Y-6805246D02*
X7218277Y-6862388D01*
X7218277Y-6862388D02*
X7208753Y-6881436D01*
X7208753Y-6881436D02*
X7199230Y-6890960D01*
X7199230Y-6890960D02*
X7180182Y-6900484D01*
X7180182Y-6900484D02*
X7151610Y-6900484D01*
X7332563Y-6900484D02*
X7313515Y-6890960D01*
X7313515Y-6890960D02*
X7303991Y-6871912D01*
X7303991Y-6871912D02*
X7303991Y-6700484D01*
X7484944Y-6890960D02*
X7465896Y-6900484D01*
X7465896Y-6900484D02*
X7427801Y-6900484D01*
X7427801Y-6900484D02*
X7408753Y-6890960D01*
X7408753Y-6890960D02*
X7399230Y-6871912D01*
X7399230Y-6871912D02*
X7399230Y-6795722D01*
X7399230Y-6795722D02*
X7408753Y-6776674D01*
X7408753Y-6776674D02*
X7427801Y-6767150D01*
X7427801Y-6767150D02*
X7465896Y-6767150D01*
X7465896Y-6767150D02*
X7484944Y-6776674D01*
X7484944Y-6776674D02*
X7494468Y-6795722D01*
X7494468Y-6795722D02*
X7494468Y-6814769D01*
X7494468Y-6814769D02*
X7399230Y-6833817D01*
X7570658Y-6890960D02*
X7589706Y-6900484D01*
X7589706Y-6900484D02*
X7627801Y-6900484D01*
X7627801Y-6900484D02*
X7646849Y-6890960D01*
X7646849Y-6890960D02*
X7656372Y-6871912D01*
X7656372Y-6871912D02*
X7656372Y-6862388D01*
X7656372Y-6862388D02*
X7646849Y-6843341D01*
X7646849Y-6843341D02*
X7627801Y-6833817D01*
X7627801Y-6833817D02*
X7599230Y-6833817D01*
X7599230Y-6833817D02*
X7580182Y-6824293D01*
X7580182Y-6824293D02*
X7570658Y-6805246D01*
X7570658Y-6805246D02*
X7570658Y-6795722D01*
X7570658Y-6795722D02*
X7580182Y-6776674D01*
X7580182Y-6776674D02*
X7599230Y-6767150D01*
X7599230Y-6767150D02*
X7627801Y-6767150D01*
X7627801Y-6767150D02*
X7646849Y-6776674D01*
X7723039Y-6976674D02*
X7732563Y-6967150D01*
X7732563Y-6967150D02*
X7751611Y-6938579D01*
X7751611Y-6938579D02*
X7761134Y-6919531D01*
X7761134Y-6919531D02*
X7770658Y-6890960D01*
X7770658Y-6890960D02*
X7780182Y-6843341D01*
X7780182Y-6843341D02*
X7780182Y-6805246D01*
X7780182Y-6805246D02*
X7770658Y-6757627D01*
X7770658Y-6757627D02*
X7761134Y-6729055D01*
X7761134Y-6729055D02*
X7751611Y-6710008D01*
X7751611Y-6710008D02*
X7732563Y-6681436D01*
X7732563Y-6681436D02*
X7723039Y-6671912D01*
D11*
X2707500Y-7023000D02*
X2707500Y-7123000D01*
X2657500Y-7073000D02*
X2757500Y-7073000D01*
D10*
X3123039Y-7164484D02*
X3008753Y-7164484D01*
X3065896Y-7164484D02*
X3065896Y-6964484D01*
X3065896Y-6964484D02*
X3046848Y-6993055D01*
X3046848Y-6993055D02*
X3027801Y-7012103D01*
X3027801Y-7012103D02*
X3008753Y-7021627D01*
X3208753Y-7145436D02*
X3218277Y-7154960D01*
X3218277Y-7154960D02*
X3208753Y-7164484D01*
X3208753Y-7164484D02*
X3199229Y-7154960D01*
X3199229Y-7154960D02*
X3208753Y-7145436D01*
X3208753Y-7145436D02*
X3208753Y-7164484D01*
X3342086Y-6964484D02*
X3361134Y-6964484D01*
X3361134Y-6964484D02*
X3380182Y-6974008D01*
X3380182Y-6974008D02*
X3389705Y-6983531D01*
X3389705Y-6983531D02*
X3399229Y-7002579D01*
X3399229Y-7002579D02*
X3408753Y-7040674D01*
X3408753Y-7040674D02*
X3408753Y-7088293D01*
X3408753Y-7088293D02*
X3399229Y-7126388D01*
X3399229Y-7126388D02*
X3389705Y-7145436D01*
X3389705Y-7145436D02*
X3380182Y-7154960D01*
X3380182Y-7154960D02*
X3361134Y-7164484D01*
X3361134Y-7164484D02*
X3342086Y-7164484D01*
X3342086Y-7164484D02*
X3323039Y-7154960D01*
X3323039Y-7154960D02*
X3313515Y-7145436D01*
X3313515Y-7145436D02*
X3303991Y-7126388D01*
X3303991Y-7126388D02*
X3294467Y-7088293D01*
X3294467Y-7088293D02*
X3294467Y-7040674D01*
X3294467Y-7040674D02*
X3303991Y-7002579D01*
X3303991Y-7002579D02*
X3313515Y-6983531D01*
X3313515Y-6983531D02*
X3323039Y-6974008D01*
X3323039Y-6974008D02*
X3342086Y-6964484D01*
X3532562Y-6964484D02*
X3551610Y-6964484D01*
X3551610Y-6964484D02*
X3570658Y-6974008D01*
X3570658Y-6974008D02*
X3580182Y-6983531D01*
X3580182Y-6983531D02*
X3589705Y-7002579D01*
X3589705Y-7002579D02*
X3599229Y-7040674D01*
X3599229Y-7040674D02*
X3599229Y-7088293D01*
X3599229Y-7088293D02*
X3589705Y-7126388D01*
X3589705Y-7126388D02*
X3580182Y-7145436D01*
X3580182Y-7145436D02*
X3570658Y-7154960D01*
X3570658Y-7154960D02*
X3551610Y-7164484D01*
X3551610Y-7164484D02*
X3532562Y-7164484D01*
X3532562Y-7164484D02*
X3513515Y-7154960D01*
X3513515Y-7154960D02*
X3503991Y-7145436D01*
X3503991Y-7145436D02*
X3494467Y-7126388D01*
X3494467Y-7126388D02*
X3484943Y-7088293D01*
X3484943Y-7088293D02*
X3484943Y-7040674D01*
X3484943Y-7040674D02*
X3494467Y-7002579D01*
X3494467Y-7002579D02*
X3503991Y-6983531D01*
X3503991Y-6983531D02*
X3513515Y-6974008D01*
X3513515Y-6974008D02*
X3532562Y-6964484D01*
X3723039Y-6964484D02*
X3742086Y-6964484D01*
X3742086Y-6964484D02*
X3761134Y-6974008D01*
X3761134Y-6974008D02*
X3770658Y-6983531D01*
X3770658Y-6983531D02*
X3780182Y-7002579D01*
X3780182Y-7002579D02*
X3789705Y-7040674D01*
X3789705Y-7040674D02*
X3789705Y-7088293D01*
X3789705Y-7088293D02*
X3780182Y-7126388D01*
X3780182Y-7126388D02*
X3770658Y-7145436D01*
X3770658Y-7145436D02*
X3761134Y-7154960D01*
X3761134Y-7154960D02*
X3742086Y-7164484D01*
X3742086Y-7164484D02*
X3723039Y-7164484D01*
X3723039Y-7164484D02*
X3703991Y-7154960D01*
X3703991Y-7154960D02*
X3694467Y-7145436D01*
X3694467Y-7145436D02*
X3684943Y-7126388D01*
X3684943Y-7126388D02*
X3675420Y-7088293D01*
X3675420Y-7088293D02*
X3675420Y-7040674D01*
X3675420Y-7040674D02*
X3684943Y-7002579D01*
X3684943Y-7002579D02*
X3694467Y-6983531D01*
X3694467Y-6983531D02*
X3703991Y-6974008D01*
X3703991Y-6974008D02*
X3723039Y-6964484D01*
X3875420Y-7164484D02*
X3875420Y-7031150D01*
X3875420Y-7050198D02*
X3884943Y-7040674D01*
X3884943Y-7040674D02*
X3903991Y-7031150D01*
X3903991Y-7031150D02*
X3932563Y-7031150D01*
X3932563Y-7031150D02*
X3951610Y-7040674D01*
X3951610Y-7040674D02*
X3961134Y-7059722D01*
X3961134Y-7059722D02*
X3961134Y-7164484D01*
X3961134Y-7059722D02*
X3970658Y-7040674D01*
X3970658Y-7040674D02*
X3989705Y-7031150D01*
X3989705Y-7031150D02*
X4018277Y-7031150D01*
X4018277Y-7031150D02*
X4037324Y-7040674D01*
X4037324Y-7040674D02*
X4046848Y-7059722D01*
X4046848Y-7059722D02*
X4046848Y-7164484D01*
X4142086Y-7164484D02*
X4142086Y-7031150D01*
X4142086Y-7050198D02*
X4151610Y-7040674D01*
X4151610Y-7040674D02*
X4170658Y-7031150D01*
X4170658Y-7031150D02*
X4199229Y-7031150D01*
X4199229Y-7031150D02*
X4218277Y-7040674D01*
X4218277Y-7040674D02*
X4227801Y-7059722D01*
X4227801Y-7059722D02*
X4227801Y-7164484D01*
X4227801Y-7059722D02*
X4237325Y-7040674D01*
X4237325Y-7040674D02*
X4256372Y-7031150D01*
X4256372Y-7031150D02*
X4284944Y-7031150D01*
X4284944Y-7031150D02*
X4303991Y-7040674D01*
X4303991Y-7040674D02*
X4313515Y-7059722D01*
X4313515Y-7059722D02*
X4313515Y-7164484D01*
X4703991Y-6954960D02*
X4532563Y-7212103D01*
X4961134Y-6964484D02*
X4980182Y-6964484D01*
X4980182Y-6964484D02*
X4999229Y-6974008D01*
X4999229Y-6974008D02*
X5008753Y-6983531D01*
X5008753Y-6983531D02*
X5018277Y-7002579D01*
X5018277Y-7002579D02*
X5027801Y-7040674D01*
X5027801Y-7040674D02*
X5027801Y-7088293D01*
X5027801Y-7088293D02*
X5018277Y-7126388D01*
X5018277Y-7126388D02*
X5008753Y-7145436D01*
X5008753Y-7145436D02*
X4999229Y-7154960D01*
X4999229Y-7154960D02*
X4980182Y-7164484D01*
X4980182Y-7164484D02*
X4961134Y-7164484D01*
X4961134Y-7164484D02*
X4942087Y-7154960D01*
X4942087Y-7154960D02*
X4932563Y-7145436D01*
X4932563Y-7145436D02*
X4923039Y-7126388D01*
X4923039Y-7126388D02*
X4913515Y-7088293D01*
X4913515Y-7088293D02*
X4913515Y-7040674D01*
X4913515Y-7040674D02*
X4923039Y-7002579D01*
X4923039Y-7002579D02*
X4932563Y-6983531D01*
X4932563Y-6983531D02*
X4942087Y-6974008D01*
X4942087Y-6974008D02*
X4961134Y-6964484D01*
X5113515Y-7145436D02*
X5123039Y-7154960D01*
X5123039Y-7154960D02*
X5113515Y-7164484D01*
X5113515Y-7164484D02*
X5103991Y-7154960D01*
X5103991Y-7154960D02*
X5113515Y-7145436D01*
X5113515Y-7145436D02*
X5113515Y-7164484D01*
X5246848Y-6964484D02*
X5265896Y-6964484D01*
X5265896Y-6964484D02*
X5284944Y-6974008D01*
X5284944Y-6974008D02*
X5294468Y-6983531D01*
X5294468Y-6983531D02*
X5303991Y-7002579D01*
X5303991Y-7002579D02*
X5313515Y-7040674D01*
X5313515Y-7040674D02*
X5313515Y-7088293D01*
X5313515Y-7088293D02*
X5303991Y-7126388D01*
X5303991Y-7126388D02*
X5294468Y-7145436D01*
X5294468Y-7145436D02*
X5284944Y-7154960D01*
X5284944Y-7154960D02*
X5265896Y-7164484D01*
X5265896Y-7164484D02*
X5246848Y-7164484D01*
X5246848Y-7164484D02*
X5227801Y-7154960D01*
X5227801Y-7154960D02*
X5218277Y-7145436D01*
X5218277Y-7145436D02*
X5208753Y-7126388D01*
X5208753Y-7126388D02*
X5199229Y-7088293D01*
X5199229Y-7088293D02*
X5199229Y-7040674D01*
X5199229Y-7040674D02*
X5208753Y-7002579D01*
X5208753Y-7002579D02*
X5218277Y-6983531D01*
X5218277Y-6983531D02*
X5227801Y-6974008D01*
X5227801Y-6974008D02*
X5246848Y-6964484D01*
X5380182Y-6964484D02*
X5503991Y-6964484D01*
X5503991Y-6964484D02*
X5437325Y-7040674D01*
X5437325Y-7040674D02*
X5465896Y-7040674D01*
X5465896Y-7040674D02*
X5484944Y-7050198D01*
X5484944Y-7050198D02*
X5494468Y-7059722D01*
X5494468Y-7059722D02*
X5503991Y-7078769D01*
X5503991Y-7078769D02*
X5503991Y-7126388D01*
X5503991Y-7126388D02*
X5494468Y-7145436D01*
X5494468Y-7145436D02*
X5484944Y-7154960D01*
X5484944Y-7154960D02*
X5465896Y-7164484D01*
X5465896Y-7164484D02*
X5408753Y-7164484D01*
X5408753Y-7164484D02*
X5389706Y-7154960D01*
X5389706Y-7154960D02*
X5380182Y-7145436D01*
X5599229Y-7164484D02*
X5637325Y-7164484D01*
X5637325Y-7164484D02*
X5656372Y-7154960D01*
X5656372Y-7154960D02*
X5665896Y-7145436D01*
X5665896Y-7145436D02*
X5684944Y-7116865D01*
X5684944Y-7116865D02*
X5694467Y-7078769D01*
X5694467Y-7078769D02*
X5694467Y-7002579D01*
X5694467Y-7002579D02*
X5684944Y-6983531D01*
X5684944Y-6983531D02*
X5675420Y-6974008D01*
X5675420Y-6974008D02*
X5656372Y-6964484D01*
X5656372Y-6964484D02*
X5618277Y-6964484D01*
X5618277Y-6964484D02*
X5599229Y-6974008D01*
X5599229Y-6974008D02*
X5589706Y-6983531D01*
X5589706Y-6983531D02*
X5580182Y-7002579D01*
X5580182Y-7002579D02*
X5580182Y-7050198D01*
X5580182Y-7050198D02*
X5589706Y-7069246D01*
X5589706Y-7069246D02*
X5599229Y-7078769D01*
X5599229Y-7078769D02*
X5618277Y-7088293D01*
X5618277Y-7088293D02*
X5656372Y-7088293D01*
X5656372Y-7088293D02*
X5675420Y-7078769D01*
X5675420Y-7078769D02*
X5684944Y-7069246D01*
X5684944Y-7069246D02*
X5694467Y-7050198D01*
X5865896Y-7031150D02*
X5865896Y-7164484D01*
X5818277Y-6954960D02*
X5770658Y-7097817D01*
X5770658Y-7097817D02*
X5894467Y-7097817D01*
X5961134Y-6964484D02*
X5961134Y-7002579D01*
X6037325Y-6964484D02*
X6037325Y-7002579D01*
X6332563Y-7240674D02*
X6323039Y-7231150D01*
X6323039Y-7231150D02*
X6303991Y-7202579D01*
X6303991Y-7202579D02*
X6294468Y-7183531D01*
X6294468Y-7183531D02*
X6284944Y-7154960D01*
X6284944Y-7154960D02*
X6275420Y-7107341D01*
X6275420Y-7107341D02*
X6275420Y-7069246D01*
X6275420Y-7069246D02*
X6284944Y-7021627D01*
X6284944Y-7021627D02*
X6294468Y-6993055D01*
X6294468Y-6993055D02*
X6303991Y-6974008D01*
X6303991Y-6974008D02*
X6323039Y-6945436D01*
X6323039Y-6945436D02*
X6332563Y-6935912D01*
X6513515Y-7164484D02*
X6399229Y-7164484D01*
X6456372Y-7164484D02*
X6456372Y-6964484D01*
X6456372Y-6964484D02*
X6437325Y-6993055D01*
X6437325Y-6993055D02*
X6418277Y-7012103D01*
X6418277Y-7012103D02*
X6399229Y-7021627D01*
X6703991Y-7164484D02*
X6589706Y-7164484D01*
X6646848Y-7164484D02*
X6646848Y-6964484D01*
X6646848Y-6964484D02*
X6627801Y-6993055D01*
X6627801Y-6993055D02*
X6608753Y-7012103D01*
X6608753Y-7012103D02*
X6589706Y-7021627D01*
X6942087Y-7164484D02*
X6942087Y-6964484D01*
X7027801Y-7164484D02*
X7027801Y-7059722D01*
X7027801Y-7059722D02*
X7018277Y-7040674D01*
X7018277Y-7040674D02*
X6999230Y-7031150D01*
X6999230Y-7031150D02*
X6970658Y-7031150D01*
X6970658Y-7031150D02*
X6951610Y-7040674D01*
X6951610Y-7040674D02*
X6942087Y-7050198D01*
X7151610Y-7164484D02*
X7132563Y-7154960D01*
X7132563Y-7154960D02*
X7123039Y-7145436D01*
X7123039Y-7145436D02*
X7113515Y-7126388D01*
X7113515Y-7126388D02*
X7113515Y-7069246D01*
X7113515Y-7069246D02*
X7123039Y-7050198D01*
X7123039Y-7050198D02*
X7132563Y-7040674D01*
X7132563Y-7040674D02*
X7151610Y-7031150D01*
X7151610Y-7031150D02*
X7180182Y-7031150D01*
X7180182Y-7031150D02*
X7199230Y-7040674D01*
X7199230Y-7040674D02*
X7208753Y-7050198D01*
X7208753Y-7050198D02*
X7218277Y-7069246D01*
X7218277Y-7069246D02*
X7218277Y-7126388D01*
X7218277Y-7126388D02*
X7208753Y-7145436D01*
X7208753Y-7145436D02*
X7199230Y-7154960D01*
X7199230Y-7154960D02*
X7180182Y-7164484D01*
X7180182Y-7164484D02*
X7151610Y-7164484D01*
X7332563Y-7164484D02*
X7313515Y-7154960D01*
X7313515Y-7154960D02*
X7303991Y-7135912D01*
X7303991Y-7135912D02*
X7303991Y-6964484D01*
X7484944Y-7154960D02*
X7465896Y-7164484D01*
X7465896Y-7164484D02*
X7427801Y-7164484D01*
X7427801Y-7164484D02*
X7408753Y-7154960D01*
X7408753Y-7154960D02*
X7399230Y-7135912D01*
X7399230Y-7135912D02*
X7399230Y-7059722D01*
X7399230Y-7059722D02*
X7408753Y-7040674D01*
X7408753Y-7040674D02*
X7427801Y-7031150D01*
X7427801Y-7031150D02*
X7465896Y-7031150D01*
X7465896Y-7031150D02*
X7484944Y-7040674D01*
X7484944Y-7040674D02*
X7494468Y-7059722D01*
X7494468Y-7059722D02*
X7494468Y-7078769D01*
X7494468Y-7078769D02*
X7399230Y-7097817D01*
X7570658Y-7154960D02*
X7589706Y-7164484D01*
X7589706Y-7164484D02*
X7627801Y-7164484D01*
X7627801Y-7164484D02*
X7646849Y-7154960D01*
X7646849Y-7154960D02*
X7656372Y-7135912D01*
X7656372Y-7135912D02*
X7656372Y-7126388D01*
X7656372Y-7126388D02*
X7646849Y-7107341D01*
X7646849Y-7107341D02*
X7627801Y-7097817D01*
X7627801Y-7097817D02*
X7599230Y-7097817D01*
X7599230Y-7097817D02*
X7580182Y-7088293D01*
X7580182Y-7088293D02*
X7570658Y-7069246D01*
X7570658Y-7069246D02*
X7570658Y-7059722D01*
X7570658Y-7059722D02*
X7580182Y-7040674D01*
X7580182Y-7040674D02*
X7599230Y-7031150D01*
X7599230Y-7031150D02*
X7627801Y-7031150D01*
X7627801Y-7031150D02*
X7646849Y-7040674D01*
X7723039Y-7240674D02*
X7732563Y-7231150D01*
X7732563Y-7231150D02*
X7751611Y-7202579D01*
X7751611Y-7202579D02*
X7761134Y-7183531D01*
X7761134Y-7183531D02*
X7770658Y-7154960D01*
X7770658Y-7154960D02*
X7780182Y-7107341D01*
X7780182Y-7107341D02*
X7780182Y-7069246D01*
X7780182Y-7069246D02*
X7770658Y-7021627D01*
X7770658Y-7021627D02*
X7761134Y-6993055D01*
X7761134Y-6993055D02*
X7751611Y-6974008D01*
X7751611Y-6974008D02*
X7732563Y-6945436D01*
X7732563Y-6945436D02*
X7723039Y-6935912D01*
M02*
