M48
; DRILL file {KiCad 8.0.6} date 2024-12-13T00:51:43+0100
; FORMAT={-:-/ absolute / metric / decimal}
; #@! TF.CreationDate,2024-12-13T00:51:43+01:00
; #@! TF.GenerationSoftware,Kicad,Pcbnew,8.0.6
; #@! TF.FileFunction,Plated,1,2,PTH
FMAT,2
METRIC
; #@! TA.AperFunction,Plated,PTH,ViaDrill
T1C0.400
; #@! TA.AperFunction,Plated,PTH,ComponentDrill
T2C0.800
; #@! TA.AperFunction,Plated,PTH,ComponentDrill
T3C1.000
%
G90
G05
T1
X32.487Y-43.7
X34.262Y-40.65
X36.712Y-49.9
X40.7Y-35.95
X50.75Y-32.425
X53.75Y-29.3
T2
X55.77Y-36.54
X55.77Y-39.08
X55.77Y-41.62
X55.77Y-44.16
X55.77Y-46.7
X55.98Y-34.0
X55.98Y-49.24
X58.52Y-34.0
X58.52Y-49.24
X61.06Y-34.0
X61.06Y-49.24
X63.6Y-34.0
X63.6Y-49.24
X66.14Y-34.0
X66.14Y-49.24
X68.68Y-34.0
X68.68Y-49.24
X71.22Y-34.0
X71.22Y-49.24
X73.76Y-34.0
X73.76Y-49.24
X76.3Y-34.0
X76.3Y-49.24
T3
X38.7Y-39.2
X40.22Y-27.9
X41.15Y-48.65
X42.7Y-39.2
X42.76Y-27.9
X43.65Y-48.65
X45.3Y-27.9
X46.15Y-48.65
X48.65Y-48.65
X63.0Y-26.35
X67.0Y-26.35
M30
